<svg width="188" height="188" viewBox="0 0 188 188" fill="none" xmlns="http://www.w3.org/2000/svg">
<path fill-rule="evenodd" clip-rule="evenodd" d="M67 12H73V19L80 19V25H73V32H67V25H60V19L67 19V12ZM26.9497 12.8076L31.1924 17.0503L26.2426 22L31.1924 26.9497L26.9497 31.1924L22 26.2426L17.0503 31.1924L12.8076 26.9497L17.7574 22L12.8076 17.0503L17.0503 12.8076L22 17.7574L26.9497 12.8076ZM127.192 17.0503L122.95 12.8076L118 17.7574L113.05 12.8076L108.808 17.0503L113.757 22L108.808 26.9497L113.05 31.1924L118 26.2426L122.95 31.1924L127.192 26.9497L122.243 22L127.192 17.0503ZM163 12H169V19L176 19V25H169V32H163V25H156V19L163 19V12ZM19 60V67H12V73H19V80H25V73H32V67H25V60H19ZM74.9497 60.8076L79.1924 65.0503L74.2426 70L79.1924 74.9497L74.9497 79.1924L70 74.2426L65.0503 79.1924L60.8076 74.9497L65.7574 70L60.8076 65.0503L65.0503 60.8076L70 65.7574L74.9497 60.8076ZM115 60V67H108V73H115V80H121V73H128V67H121V60H115ZM170.95 60.8076L175.192 65.0503L170.243 70L175.192 74.9497L170.95 79.1924L166 74.2426L161.05 79.1924L156.808 74.9497L161.757 70L156.808 65.0503L161.05 60.8076L166 65.7574L170.95 60.8076ZM31.1924 113.05L26.9497 108.808L22 113.757L17.0503 108.808L12.8076 113.05L17.7574 118L12.8076 122.95L17.0503 127.192L22 122.243L26.9497 127.192L31.1924 122.95L26.2426 118L31.1924 113.05ZM67 115V108H73V115H80V121H73V128H67V121H60V115H67ZM127.192 113.05L122.95 108.808L118 113.757L113.05 108.808L108.808 113.05L113.757 118L108.808 122.95L113.05 127.192L118 122.243L122.95 127.192L127.192 122.95L122.243 118L127.192 113.05ZM163 115V108H169V115H176V121H169V128H163V121H156V115H163ZM19 156V163H12V169H19V176H25V169H32V163H25V156H19ZM74.9497 156.808L79.1924 161.05L74.2426 166L79.1924 170.95L74.9497 175.192L70 170.243L65.0503 175.192L60.8076 170.95L65.7574 166L60.8076 161.05L65.0503 156.808L70 161.757L74.9497 156.808ZM115 156V163H108V169H115V176H121V169H128V163H121V156H115ZM170.95 156.808L175.192 161.05L170.243 166L175.192 170.95L170.95 175.192L166 170.243L161.05 175.192L156.808 170.95L161.757 166L156.808 161.05L161.05 156.808L166 161.757L170.95 156.808Z" fill="white"/>
</svg>
